<?xml version="1.0" standalone="no"?>
<!DOCTYPE svg PUBLIC "-//W3C//DTD SVG 20010904//EN"
 "http://www.w3.org/TR/2001/REC-SVG-20010904/DTD/svg10.dtd">
<svg version="1.0" xmlns="http://www.w3.org/2000/svg"
 width="227.000000pt" height="135.000000pt" viewBox="0 0 227.000000 135.000000"
 preserveAspectRatio="xMidYMid meet">

<g transform="translate(0.000000,135.000000) scale(0.100000,-0.100000)"
fill="#000000" stroke="none">
<path d="M480 1040 c0 -5 6 -10 13 -10 16 0 47 -32 47 -48 0 -7 -7 -12 -15
-12 -20 0 -38 -37 -33 -70 4 -26 2 -28 -40 -33 -63 -7 -88 -40 -68 -88 5 -12
0 -18 -24 -22 -36 -8 -58 -45 -42 -73 9 -15 5 -21 -19 -31 -53 -22 -58 -83 -9
-108 23 -12 28 -24 39 -85 20 -110 19 -110 218 -110 198 0 195 -2 219 110 13
57 22 79 37 86 49 22 48 88 -2 106 -23 9 -26 16 -23 40 5 33 -20 68 -49 68
-14 0 -17 6 -12 33 6 41 -19 67 -75 74 -39 5 -40 6 -35 38 4 28 1 36 -26 56
-17 12 -31 28 -31 35 0 13 -47 54 -61 54 -5 0 -9 -4 -9 -10z m104 -96 c30 -29
10 -74 -32 -74 -33 0 -52 16 -52 45 0 43 53 61 84 29z m110 -110 c30 -30 15
-62 -35 -74 -30 -7 -28 -8 23 -9 59 -1 88 -17 88 -50 0 -36 -20 -41 -157 -41
-82 0 -133 -4 -133 -10 0 -6 62 -10 165 -10 l165 0 12 -25 c9 -21 8 -28 -7
-45 -17 -19 -31 -20 -262 -20 -149 0 -252 4 -264 10 -21 12 -25 50 -7 68 7 7
38 12 70 12 32 0 58 4 58 10 0 6 -12 10 -27 10 -52 0 -75 38 -43 70 17 17 35
20 128 22 98 2 100 2 27 5 -85 4 -105 13 -105 47 0 41 17 46 156 46 107 0 136
-3 148 -16z m-270 -302 c2 -4 8 -45 12 -91 l7 -84 -34 7 c-44 9 -48 13 -64 82
-22 92 -22 94 29 94 25 0 47 -3 50 -8z m116 -82 l0 -90 -40 0 c-45 0 -45 0
-55 113 l-7 67 51 0 51 0 0 -90z m109 43 c0 -27 -3 -66 -7 -88 -7 -39 -9 -40
-47 -40 l-40 0 -3 74 c-2 41 -1 80 2 88 3 8 22 13 51 13 l45 0 -1 -47z m117
30 c-2 -10 -10 -44 -16 -76 -12 -61 -41 -92 -77 -85 -15 3 -18 12 -15 58 1 30
5 70 8 88 5 31 6 32 55 32 43 0 50 -2 45 -17z"/>
<path d="M1279 967 c-48 -32 -82 -101 -74 -152 11 -78 85 -113 148 -72 33 22
46 80 26 116 -12 21 -23 27 -62 29 -26 2 -47 7 -47 11 0 16 41 60 60 66 11 4
20 11 20 16 0 16 -36 10 -71 -14z m51 -116 c14 -28 12 -63 -6 -89 -18 -26 -27
-27 -48 -6 -16 15 -23 94 -9 107 13 14 53 6 63 -12z"/>
<path d="M1063 921 c-38 -18 -44 -42 -10 -38 20 2 22 -2 25 -60 3 -54 0 -64
-18 -75 -33 -21 -23 -28 39 -28 60 0 89 13 51 23 -18 5 -20 14 -20 101 0 107
-2 110 -67 77z"/>
<path d="M1410 665 c0 -8 5 -15 10 -15 6 0 10 -43 10 -109 0 -63 -4 -112 -10
-116 -23 -14 -7 -25 35 -25 46 0 54 7 34 27 -15 15 -3 63 15 63 15 0 39 -49
34 -71 -2 -10 9 -15 40 -17 39 -3 55 9 32 23 -6 4 -22 29 -36 56 -27 54 -23
72 17 84 33 11 21 25 -22 25 -34 0 -40 -3 -35 -18 4 -12 -4 -28 -24 -47 l-30
-29 0 92 0 92 -35 0 c-24 0 -35 -5 -35 -15z"/>
<path d="M1055 565 c-27 -26 -34 -89 -15 -124 16 -31 63 -45 104 -31 46 15 47
30 2 23 -27 -4 -36 -1 -50 18 -19 27 -21 90 -4 107 18 18 45 14 51 -8 8 -33
37 -25 37 10 0 29 -1 30 -50 30 -41 0 -56 -5 -75 -25z"/>
<path d="M1234 575 c-21 -16 -18 -17 41 -19 29 -1 40 -6 43 -18 3 -14 -3 -18
-30 -18 -73 0 -108 -70 -53 -106 21 -14 30 -15 56 -4 24 10 32 11 38 1 5 -8
18 -10 35 -5 20 5 24 10 17 17 -6 6 -11 37 -11 70 0 83 -10 97 -68 97 -27 0
-57 -7 -68 -15z m84 -107 c-2 -25 -8 -33 -22 -33 -10 0 -24 7 -29 17 -13 21 7
48 35 48 16 0 19 -6 16 -32z"/>
<path d="M1662 567 c-16 -17 -22 -36 -22 -70 0 -77 54 -113 124 -83 43 18 41
35 -4 28 -20 -3 -37 2 -50 13 -35 32 -25 45 35 45 54 0 55 1 55 28 0 39 -28
62 -77 62 -28 0 -46 -6 -61 -23z m88 -22 c0 -21 -5 -25 -30 -25 -22 0 -30 5
-30 18 0 25 9 32 37 32 18 0 23 -5 23 -25z"/>
<path d="M1851 576 c-24 -29 -9 -69 33 -91 43 -23 56 -43 35 -56 -20 -13 -27
-11 -46 11 -23 26 -33 25 -33 -4 0 -20 6 -24 39 -30 66 -10 115 21 103 66 -2
10 -27 30 -54 44 -27 14 -48 30 -45 37 6 19 49 21 59 3 13 -24 28 -19 28 9 0
24 -3 25 -54 25 -34 0 -58 -5 -65 -14z"/>
</g>
</svg>
